<svg id="Layer_1" data-name="Layer 1" xmlns="http://www.w3.org/2000/svg" viewBox="0 0 1104.24 173.16"><defs><style>.cls-1{fill:#ff2247;}.cls-2{fill:#30343f;}</style></defs><title>Red-Black-svg</title><path class="cls-1" d="M158.17,105.9h-6.82c-2.65,0-3.79-.76-4.92-3l-46-77.65H99.08v80.56H92.77V17.39h7.07c2.78,0,3.79.63,5.05,3l45.58,76.77h1.26V17.39h6.44Z"/><path class="cls-1" d="M271.81,105.9H265c-2.65,0-3.79-.76-4.92-3l-46-77.65h-1.39v80.56h-6.31V17.39h7.07c2.78,0,3.79.63,5.05,3l45.58,76.77h1.26V17.39h6.44Z"/><path class="cls-1" d="M366.39,17.39c7.7,0,10.86,1,13.51,3.54,4.29,4.29,6.69,10.61,6.69,40.66s-2.4,36.36-6.69,40.66c-2.65,2.53-5.81,3.54-13.51,3.54H337.6c-7.83,0-11-1-13.51-3.54-4.42-4.29-6.82-10.61-6.82-40.66s2.4-36.36,6.82-40.66c2.53-2.53,5.68-3.54,13.51-3.54ZM328.64,97.57c1.51,1.64,3.28,2.53,9.47,2.53h27.78c6.06,0,8-.88,9.47-2.53,2.53-2.53,4.55-7.58,4.55-36s-2-33.46-4.55-36c-1.52-1.64-3.41-2.53-9.47-2.53H338.11c-6.19,0-8,.88-9.47,2.53-2.65,2.53-4.8,7.58-4.8,36S326,95,328.64,97.57Z"/><path class="cls-1" d="M464.25,103.12c-.88,2.4-1.64,3.16-4.8,3.16h-4.29c-3.16,0-3.91-.76-4.8-3.16L421.83,17.39h6.94l27.15,82.45h3.16l27-82.45h6.82Z"/><path class="cls-1" d="M575,77.11H535.47l-9.6,28.66h-6.69l29.17-85.61c.88-2.53,1.64-3.16,4.8-3.16h4.42c3.16,0,3.91.63,4.8,3.16l29.29,85.61h-7.07Zm-37.63-5.68H573L556.68,22.94h-3Z"/><path class="cls-1" d="M649.87,23.07v82.7H643.3V23.07H613.76V17.39h65.79v5.68Z"/><path class="cls-1" d="M717.3,105.77V17.39H724v88.39Z"/><path class="cls-1" d="M818.69,17.39c7.7,0,10.86,1,13.51,3.54,4.29,4.29,6.69,10.61,6.69,40.66s-2.4,36.36-6.69,40.66c-2.65,2.53-5.81,3.54-13.51,3.54H789.9c-7.83,0-11-1-13.51-3.54-4.42-4.29-6.82-10.61-6.82-40.66s2.4-36.36,6.82-40.66c2.53-2.53,5.68-3.54,13.51-3.54ZM780.94,97.57c1.51,1.64,3.28,2.53,9.47,2.53h27.78c6.06,0,8-.88,9.47-2.53,2.53-2.53,4.54-7.58,4.54-36s-2-33.46-4.54-36c-1.52-1.64-3.41-2.53-9.47-2.53H790.41c-6.19,0-8,.88-9.47,2.53-2.65,2.53-4.8,7.58-4.8,36S778.28,95,780.94,97.57Z"/><path class="cls-1" d="M949.76,105.9h-6.82c-2.65,0-3.79-.76-4.93-3l-46-77.65h-1.39v80.56h-6.31V17.39h7.07c2.78,0,3.79.63,5.05,3l45.58,76.77h1.26V17.39h6.44Z"/><path class="cls-2" d="M1028.8,76.1h-1.26L974.22,158H952.5L1016.3,61l-29-43.56h23.23l18.43,28h1.14l18.31-28h22l-29.17,43.44,29.93,45h-22.86Z"/><path class="cls-1" d="M37.71,105.77V17.39H44.4v88.39Z"/></svg>